<?xml version="1.0" encoding="UTF-8" standalone="no"?>
<!-- Created with Inkscape (http://www.inkscape.org/) -->

<svg
   xmlns:dc="http://purl.org/dc/elements/1.1/"
   xmlns:cc="http://creativecommons.org/ns#"
   xmlns:rdf="http://www.w3.org/1999/02/22-rdf-syntax-ns#"
   xmlns:svg="http://www.w3.org/2000/svg"
   xmlns="http://www.w3.org/2000/svg"
   xmlns:sodipodi="http://sodipodi.sourceforge.net/DTD/sodipodi-0.dtd"
   xmlns:inkscape="http://www.inkscape.org/namespaces/inkscape"
   width="1980"
   height="646"
   id="svg2"
   version="1.1"
   inkscape:version="0.91 r13725"
   sodipodi:docname="luvit-logo.svg">
  <defs
     id="defs4">
    <filter
       style="color-interpolation-filters:sRGB"
       inkscape:label="Drop Shadow"
       id="filter4266">
      <feFlood
         flood-opacity="0.247059"
         flood-color="rgb(0,0,0)"
         result="flood"
         id="feFlood4268" />
      <feComposite
         in="flood"
         in2="SourceGraphic"
         operator="in"
         result="composite1"
         id="feComposite4270" />
      <feGaussianBlur
         in="composite1"
         stdDeviation="3"
         result="blur"
         id="feGaussianBlur4272" />
      <feOffset
         dx="6"
         dy="6"
         result="offset"
         id="feOffset4274" />
      <feComposite
         in="SourceGraphic"
         in2="offset"
         operator="over"
         result="composite2"
         id="feComposite4276" />
    </filter>
    <filter
       style="color-interpolation-filters:sRGB"
       inkscape:label="Drop Shadow"
       id="filter4278">
      <feFlood
         flood-opacity="0.247059"
         flood-color="rgb(0,0,0)"
         result="flood"
         id="feFlood4280" />
      <feComposite
         in="flood"
         in2="SourceGraphic"
         operator="in"
         result="composite1"
         id="feComposite4282" />
      <feGaussianBlur
         in="composite1"
         stdDeviation="3"
         result="blur"
         id="feGaussianBlur4284" />
      <feOffset
         dx="6"
         dy="6"
         result="offset"
         id="feOffset4286" />
      <feComposite
         in="SourceGraphic"
         in2="offset"
         operator="over"
         result="composite2"
         id="feComposite4288" />
    </filter>
    <filter
       style="color-interpolation-filters:sRGB"
       inkscape:label="Drop Shadow"
       id="filter4290">
      <feFlood
         flood-opacity="0.247059"
         flood-color="rgb(0,0,0)"
         result="flood"
         id="feFlood4292" />
      <feComposite
         in="flood"
         in2="SourceGraphic"
         operator="in"
         result="composite1"
         id="feComposite4294" />
      <feGaussianBlur
         in="composite1"
         stdDeviation="3"
         result="blur"
         id="feGaussianBlur4296" />
      <feOffset
         dx="6"
         dy="6"
         result="offset"
         id="feOffset4298" />
      <feComposite
         in="SourceGraphic"
         in2="offset"
         operator="over"
         result="composite2"
         id="feComposite4300" />
    </filter>
    <filter
       style="color-interpolation-filters:sRGB"
       inkscape:label="Drop Shadow"
       id="filter4302">
      <feFlood
         flood-opacity="0.247059"
         flood-color="rgb(0,0,0)"
         result="flood"
         id="feFlood4304" />
      <feComposite
         in="flood"
         in2="SourceGraphic"
         operator="in"
         result="composite1"
         id="feComposite4306" />
      <feGaussianBlur
         in="composite1"
         stdDeviation="3"
         result="blur"
         id="feGaussianBlur4308" />
      <feOffset
         dx="6"
         dy="6"
         result="offset"
         id="feOffset4310" />
      <feComposite
         in="SourceGraphic"
         in2="offset"
         operator="over"
         result="composite2"
         id="feComposite4312" />
    </filter>
    <filter
       style="color-interpolation-filters:sRGB"
       inkscape:label="Drop Shadow"
       id="filter4278-1">
      <feFlood
         flood-opacity="0.247059"
         flood-color="rgb(0,0,0)"
         result="flood"
         id="feFlood4280-2" />
      <feComposite
         in="flood"
         in2="SourceGraphic"
         operator="in"
         result="composite1"
         id="feComposite4282-3" />
      <feGaussianBlur
         in="composite1"
         stdDeviation="3"
         result="blur"
         id="feGaussianBlur4284-3" />
      <feOffset
         dx="6"
         dy="6"
         result="offset"
         id="feOffset4286-0" />
      <feComposite
         in="SourceGraphic"
         in2="offset"
         operator="over"
         result="composite2"
         id="feComposite4288-4" />
    </filter>
    <filter
       style="color-interpolation-filters:sRGB"
       inkscape:label="Drop Shadow"
       id="filter4290-7">
      <feFlood
         flood-opacity="0.247059"
         flood-color="rgb(0,0,0)"
         result="flood"
         id="feFlood4292-9" />
      <feComposite
         in="flood"
         in2="SourceGraphic"
         operator="in"
         result="composite1"
         id="feComposite4294-7" />
      <feGaussianBlur
         in="composite1"
         stdDeviation="3"
         result="blur"
         id="feGaussianBlur4296-5" />
      <feOffset
         dx="6"
         dy="6"
         result="offset"
         id="feOffset4298-4" />
      <feComposite
         in="SourceGraphic"
         in2="offset"
         operator="over"
         result="composite2"
         id="feComposite4300-9" />
    </filter>
    <filter
       style="color-interpolation-filters:sRGB"
       inkscape:label="Drop Shadow"
       id="filter4266-6">
      <feFlood
         flood-opacity="0.247059"
         flood-color="rgb(0,0,0)"
         result="flood"
         id="feFlood4268-2" />
      <feComposite
         in="flood"
         in2="SourceGraphic"
         operator="in"
         result="composite1"
         id="feComposite4270-1" />
      <feGaussianBlur
         in="composite1"
         stdDeviation="3"
         result="blur"
         id="feGaussianBlur4272-1" />
      <feOffset
         dx="6"
         dy="6"
         result="offset"
         id="feOffset4274-7" />
      <feComposite
         in="SourceGraphic"
         in2="offset"
         operator="over"
         result="composite2"
         id="feComposite4276-5" />
    </filter>
  </defs>
  <sodipodi:namedview
     id="base"
     pagecolor="#ffffff"
     bordercolor="#666666"
     borderopacity="1.0"
     inkscape:pageopacity="0.0"
     inkscape:pageshadow="2"
     inkscape:zoom="1"
     inkscape:cx="1020.4209"
     inkscape:cy="1477.6108"
     inkscape:document-units="px"
     inkscape:current-layer="layer1"
     showgrid="false"
     inkscape:window-width="3840"
     inkscape:window-height="2047"
     inkscape:window-x="0"
     inkscape:window-y="55"
     inkscape:window-maximized="1"
     showguides="false"
     inkscape:guide-bbox="true"
     fit-margin-top="100"
     fit-margin-left="100"
     fit-margin-right="100"
     fit-margin-bottom="100"
     borderlayer="true">
    <inkscape:grid
       type="xygrid"
       id="grid2985"
       empspacing="5"
       visible="true"
       enabled="true"
       snapvisiblegridlinesonly="true"
       originx="1247.2264"
       originy="162.42074" />
    <sodipodi:guide
       position="1087.4201,392.93755"
       orientation="0,1"
       id="guide4358" />
  </sodipodi:namedview>
  <metadata
     id="metadata7">
    <rdf:RDF>
      <cc:Work
         rdf:about="">
        <dc:format>image/svg+xml</dc:format>
        <dc:type
           rdf:resource="http://purl.org/dc/dcmitype/StillImage" />
        <dc:title />
      </cc:Work>
    </rdf:RDF>
  </metadata>
  <g
     inkscape:label="Layer 1"
     inkscape:groupmode="layer"
     id="layer1"
     transform="translate(1247.2264,-568.78291)">
    <rect
       style="fill:none;fill-opacity:1;stroke:#bfbfbf;stroke-width:22.70049667;stroke-miterlimit:4;stroke-dasharray:none"
       id="rect4271"
       width="2465.2661"
       height="1028.4324"
       x="-1463.062"
       y="379.61407" />
    <path
       sodipodi:nodetypes="czcccczccsccccccccccccccccccccscccszczc"
       inkscape:connector-curvature="0"
       id="path3010"
       d="m 2130.25,532.08093 c -19.3673,3.3e-4 -38.0825,4.32872 -52.4063,9.8125 -14.3237,5.48379 -199.8432,96.78141 -299.8437,145.25 l 0,0.0625 -0.031,0 0.031,53.1875 c 0,0 265.4257,110.48476 273.375,113 7.9493,2.51524 14.3581,3.96833 22.3125,5.6875 8.3002,1.71917 16.7914,3.09349 25.4375,4.125 8.9918,1.37532 17.4518,2.06249 25.4062,2.0625 21.4421,-10e-6 39.937,-2.40508 55.5,-7.21875 15.5628,-5.1575 28.3767,-12.21656 38.4063,-21.15625 10.0292,-9.28349 17.4705,-20.12194 22.3125,-32.5 4.8416,-12.37795 7.2498,-25.93382 7.25,-40.71875 -2e-4,-18.56691 -4.6625,-34.5591 -14,-47.96875 -8.9921,-13.40936 -21.806,-23.56066 -38.4063,-30.4375 12.1043,-6.18883 21.7996,-15.12196 29.0625,-26.8125 7.2625,-11.69015 10.9061,-23.90293 10.9063,-36.625 -2e-4,-12.7216 -2.1001,-24.5908 -6.25,-35.59375 -4.1503,-11.0024 -10.5416,-20.43528 -19.1875,-28.34375 -8.6462,-8.25171 -19.6998,-14.62359 -33.1875,-19.09375 -13.1422,-4.46952 -28.7038,-6.71842 -46.6875,-6.71875 z m 0.5,54.15625 c 12.4502,2.7e-4 22.1455,3.4361 29.0625,10.3125 7.2625,6.53311 10.9061,15.65365 10.9062,27.34375 -10e-5,7.90841 -1.7292,14.43646 -5.1875,19.59375 -3.1127,5.15772 -7.2812,9.2807 -12.4687,12.375 -5.1878,3.09471 -11.0541,5.34361 -17.625,6.71875 -12.9251,2.65397 -29.2171,2.0816 -43.5938,2.0625 l 0,52.59375 19.7188,0 c 20.7504,1.4e-4 37.887,3.43596 51.375,10.3125 13.4877,6.53296 20.2186,18.24601 20.2187,35.09375 -10e-5,13.75343 -4.5082,25.2478 -13.5,34.53125 -8.6462,9.28357 -23.8683,13.93755 -45.6562,13.9375 -17.6381,5e-5 -33.8346,-2.71976 -45.625,-5.6875 -11.7904,-2.96774 -232.5625,-95.1875 -232.5625,-95.1875 0,0 235.3418,-112.4337 248.625,-117.8125 13.2832,-5.3788 24.2079,-6.18723 36.3125,-6.1875 z"
       style="fill:#008000;stroke:none" />
    <path
       sodipodi:nodetypes="cccscccscccsccccccccccccccccccccccccc"
       d="m 2124.5342,865.26709 c -7.9545,-1e-5 -16.4276,-0.68768 -25.4194,-2.063 -8.6462,-1.03151 -17.1193,-2.40684 -25.4195,-4.12601 -7.9544,-1.71917 -15.39,-3.61025 -22.3068,-5.67325 -6.9169,-2.06301 -12.2774,-3.95409 -16.0817,-5.67326 l 12.4504,-53.12233 c 7.9543,3.4384 18.1566,7.04865 30.607,10.83076 12.7961,3.78223 28.0132,5.67331 45.6512,5.67326 21.788,5e-5 37.005,-4.6417 45.6512,-13.92527 8.9918,-9.28345 13.4877,-20.80187 13.4879,-34.5553 -2e-4,-16.84774 -6.7441,-28.53809 -20.2318,-35.07105 -13.488,-6.87654 -30.6072,-10.31488 -51.3576,-10.31502 l -19.713,0 0,-52.60658 c 14.3766,0.0191 30.651,0.59097 43.5761,-2.063 6.5709,-1.37514 12.4502,-3.61005 17.638,-6.70476 5.1875,-3.0943 9.3376,-7.2203 12.4503,-12.37802 3.4583,-5.15729 5.1875,-11.69012 5.1877,-19.59853 -2e-4,-11.6901 -3.6315,-20.80168 -10.8941,-27.33479 -6.917,-6.8764 -16.6006,-10.31474 -29.0508,-10.31501 -12.1046,2.7e-4 -24.209,2.06327 -36.3134,6.18901 -11.7587,3.78243 -21.9611,8.5961 -30.6071,14.44102 l -24.9684,-45.70328 c 9.3377,-6.18871 23.7579,-13.09199 38.975,-19.28131 15.5629,-6.53253 33.0279,-9.79894 52.3952,-9.79927 17.9837,3.3e-4 33.5466,2.23524 46.6887,6.70476 13.4877,4.47016 24.5546,10.83107 33.2009,19.08278 8.6459,7.90847 15.0439,17.36389 19.1942,28.36629 4.1499,11.00295 6.225,22.8652 6.2252,35.5868 -2e-4,12.72207 -3.6315,24.92816 -10.894,36.61831 -7.2629,11.69054 -16.9465,20.6302 -29.0508,26.81903 16.6003,6.87684 29.3964,17.01994 38.3885,30.4293 9.3375,13.40965 14.0064,29.39791 14.0066,47.96482 -2e-4,14.78493 -2.4211,28.36636 -7.2627,40.74431 -4.842,12.37806 -12.2776,23.20881 -22.3068,32.4923 -10.0296,8.93969 -22.8258,15.98828 -38.3885,21.14578 -15.5631,4.81367 -34.0656,7.2205 -55.5077,7.22051"
       style="font-style:normal;font-variant:normal;font-weight:bold;font-stretch:normal;font-size:517.25506592px;line-height:125%;font-family:'Ubuntu Mono';-inkscape-font-specification:'Ubuntu Mono Bold';letter-spacing:0px;word-spacing:0px;fill:#ff0000;fill-opacity:1;stroke:none"
       id="path3005"
       inkscape:connector-curvature="0" />
    <path
       sodipodi:nodetypes="cccccccc"
       d="m 1778,687.13234 194.2053,-94.46444 20.4951,47.84394 -147.0396,69.78826 149.1824,61.93112 -17.6379,51.70108 L 1778,740.38067 l 0,-53.24833"
       style="font-style:normal;font-variant:normal;font-weight:bold;font-stretch:normal;font-size:517.25506592px;line-height:125%;font-family:'Ubuntu Mono';-inkscape-font-specification:'Ubuntu Mono Bold';letter-spacing:0px;word-spacing:0px;fill:#ff0000;fill-opacity:1;stroke:none"
       id="path3002"
       inkscape:connector-curvature="0" />
    <path
       style="fill:#666666;stroke:none"
       d="m 2130.25,532.08093 c -19.3673,3.3e-4 -38.0825,4.32872 -52.4063,9.8125 -3.3541,1.28414 -16.3544,7.39392 -35.1875,16.4375 l 22.75,47.53125 c 14.8499,-6.97538 26.5649,-12.43878 29.0313,-13.4375 13.2832,-5.3788 24.2079,-6.18723 36.3125,-6.1875 12.4502,2.7e-4 22.1455,3.4361 29.0625,10.3125 7.2625,6.53311 10.9061,15.65365 10.9062,27.34375 -10e-5,7.90841 -1.7292,14.43646 -5.1875,19.59375 -3.1127,5.15772 -7.2812,9.2807 -12.4687,12.375 -5.1878,3.09471 -11.0541,5.34361 -17.625,6.71875 -12.9251,2.65397 -29.2171,2.0816 -43.5938,2.0625 l 0,52.59375 19.7188,0 c 20.7504,1.4e-4 37.887,3.43596 51.375,10.3125 13.4877,6.53296 20.2186,18.24601 20.2187,35.09375 -10e-5,13.75343 -4.5082,25.2478 -13.5,34.53125 -8.6462,9.28357 -23.8683,13.93755 -45.6562,13.9375 -17.6381,5e-5 -33.8346,-2.71976 -45.625,-5.6875 -1.3116,-0.33013 -5.5455,-1.8983 -11.4375,-4.1875 l -20.7813,50.125 c 2.7554,1.10006 4.6785,1.86028 5.2188,2.03125 7.9493,2.51524 14.3581,3.96833 22.3125,5.6875 8.3002,1.71917 16.7914,3.09349 25.4375,4.125 8.9918,1.37532 17.4518,2.06249 25.4062,2.0625 21.4421,-10e-6 39.937,-2.40508 55.5,-7.21875 15.5628,-5.1575 28.3767,-12.21656 38.4063,-21.15625 10.0292,-9.28349 17.4705,-20.12194 22.3125,-32.5 4.8416,-12.37795 7.2498,-25.93382 7.25,-40.71875 -2e-4,-18.56691 -4.6625,-34.5591 -14,-47.96875 -8.9921,-13.40936 -21.806,-23.56066 -38.4063,-30.4375 12.1043,-6.18883 21.7996,-15.12196 29.0625,-26.8125 7.2625,-11.69015 10.9061,-23.90293 10.9063,-36.625 -2e-4,-12.7216 -2.1001,-24.5908 -6.25,-35.59375 -4.1503,-11.0024 -10.5416,-20.43528 -19.1875,-28.34375 -8.6462,-8.25171 -19.6998,-14.62359 -33.1875,-19.09375 -13.1422,-4.46952 -28.7038,-6.71842 -46.6875,-6.71875 z m -159.3125,61.03125 C 1908.0066,623.75975 1831.1627,661.37632 1778,687.14343 l 0,0.0625 -0.031,0 0.031,53.1875 c 0,0 113.5985,47.29367 194.4375,80.71875 l 20.625,-49.84375 c -66.4757,-27.33355 -147.25,-61.03125 -147.25,-61.03125 0,0 78.5503,-37.51325 147.5312,-70.28125 l -22.4062,-46.84375 z"
       id="path3000"
       inkscape:connector-curvature="0" />
    <g
       style="font-style:normal;font-weight:normal;font-size:402.57302856px;line-height:125%;font-family:Sans;-inkscape-font-specification:'Ubuntu Bold';letter-spacing:0px;word-spacing:0px;fill:#239dc0;fill-opacity:1;stroke:none;filter:url(#filter4266)"
       id="text4267">
      <path
         d="m -872.09999,979.95707 0,53.94483 -186.39131,0 0,-278.98315 62.80139,0 0,225.03832 123.58992,0 z"
         style="font-style:normal;font-variant:normal;font-weight:bold;font-stretch:normal;font-family:Ubuntu;-inkscape-font-specification:'Ubuntu Bold';fill:#239dc0;fill-opacity:1"
         id="path4319"
         inkscape:connector-curvature="0" />
      <path
         d="m -678.24172,1026.6555 q -15.29778,4.4283 -39.45216,8.0515 -24.15438,4.0257 -50.7242,4.0257 -26.97239,0 -45.08818,-7.2463 -17.71321,-7.2463 -28.18011,-20.1286 -10.4669,-13.28494 -14.8952,-31.40073 -4.42831,-18.11579 -4.42831,-39.85473 l 0,-117.9539 59.98338,0 0,110.70759 q 0,28.98525 7.64889,41.86759 7.64889,12.88234 28.58269,12.88234 6.44117,0 13.68748,-0.40258 7.24631,-0.80514 12.88234,-1.61029 l 0,-163.44465 59.98338,0 0,204.50706 z"
         style="font-style:normal;font-variant:normal;font-weight:bold;font-stretch:normal;font-family:Ubuntu;-inkscape-font-specification:'Ubuntu Bold';fill:#239dc0;fill-opacity:1"
         id="path4321"
         inkscape:connector-curvature="0" />
      <path
         d="m -570.26409,1033.9019 q -20.53123,-40.25735 -41.8676,-94.20213 -20.93379,-53.94479 -39.85473,-117.55133 l 63.60654,0 q 4.02573,15.70035 9.25918,34.21871 5.63602,18.11579 11.27205,37.03672 6.03859,18.51836 11.67462,36.23157 6.03859,17.71321 11.67461,32.20584 5.23345,-14.49263 11.27205,-32.20584 6.03859,-17.71321 11.67462,-36.23157 6.03859,-18.92093 11.27204,-37.03672 5.63602,-18.51836 9.66175,-34.21871 l 61.99625,0 q -18.92093,63.60654 -40.2573,117.55133 -20.9338,53.94478 -41.46503,94.20213 l -49.91905,0 z"
         style="font-style:normal;font-variant:normal;font-weight:bold;font-stretch:normal;font-family:Ubuntu;-inkscape-font-specification:'Ubuntu Bold';fill:#239dc0;fill-opacity:1"
         id="path4323"
         inkscape:connector-curvature="0" />
      <path
         style="font-style:normal;font-variant:normal;font-weight:bold;font-stretch:normal;font-family:Ubuntu;-inkscape-font-specification:'Ubuntu Bold';fill:#239dc0;fill-opacity:1"
         d="m -354.54769,1033.9019 -59.98338,0 0,-211.75346 59.98338,0 0,211.75346 z"
         id="path4331"
         inkscape:connector-curvature="0" />
      <path
         style="font-style:normal;font-variant:normal;font-weight:bold;font-stretch:normal;font-family:Ubuntu;-inkscape-font-specification:'Ubuntu Bold';fill:#ff4527;fill-opacity:1"
         d="m -348.91167,760.95734 q 0,16.5055 -10.86947,26.16725 -10.4669,9.25918 -24.95953,9.25918 -14.49262,0 -25.3621,-9.25918 -10.4669,-9.66175 -10.4669,-26.16725 0,-16.50549 10.4669,-25.76467 10.86948,-9.66175 25.3621,-9.66175 14.49263,0 24.95953,9.66175 10.86947,9.25918 10.86947,25.76467 z"
         id="path4325"
         inkscape:connector-curvature="0" />
      <path
         d="m -311.63878,769.41138 59.98338,-9.66176 0,62.39882 72.06057,0 0,49.91906 -72.06057,0 0,74.47601 q 0,18.92093 6.44117,30.19298 6.84374,11.27204 26.97239,11.27204 9.66175,0 19.72608,-1.61029 10.4669,-2.01287 18.92093,-5.23345 l 8.45403,46.69851 q -10.86947,4.4283 -24.15438,7.6488 -13.28491,3.2206 -32.60841,3.2206 -24.55696,0 -40.65988,-6.4411 -16.10292,-6.8438 -25.76467,-18.5184 -9.66176,-12.0772 -13.68749,-28.98525 -3.62315,-16.90807 -3.62315,-37.4393 l 0,-177.93727 z"
         style="font-style:normal;font-variant:normal;font-weight:bold;font-stretch:normal;font-family:Ubuntu;-inkscape-font-specification:'Ubuntu Bold';fill:#239dc0;fill-opacity:1"
         id="path4327"
         inkscape:connector-curvature="0" />
    </g>
    <path
       id="path3017"
       d="m 380.44641,705.12527 c -23.04599,4.5e-4 -45.31611,4.83835 -62.36053,10.9678 -3.99131,1.43539 -19.46089,8.26443 -41.87117,18.3728 l 27.07124,53.12749 c 17.6705,-7.79667 31.61067,-13.90331 34.54557,-15.01959 15.80633,-6.01209 28.80606,-6.91577 43.20986,-6.916 14.81503,2.3e-4 26.35194,3.84065 34.58276,11.52666 8.64203,7.30229 12.97765,17.49662 12.97783,30.56306 -1.8e-4,8.83952 -2.0577,16.13622 -6.17283,21.90073 -3.704,5.76494 -8.66431,10.37338 -14.83712,13.83199 -6.17318,3.45906 -13.15379,5.97274 -20.97278,7.50974 -15.38017,2.96647 -34.7667,2.32668 -51.87414,2.30533 l 0,58.78604 23.46422,0 c 24.69186,1.1e-4 45.08345,3.84043 61.1334,11.52666 16.0496,7.30206 24.05898,20.39423 24.05918,39.22552 -2e-4,15.37281 -5.36458,28.22039 -16.06424,38.5969 -10.28853,10.3766 -28.40196,15.5785 -54.32842,15.5785 -20.98829,0 -40.26122,-3.04 -54.29121,-6.3572 -1.56069,-0.3691 -6.5988,-2.1218 -13.60998,-4.6805 l -24.72854,56.0265 c 3.27872,1.2296 5.56706,2.0794 6.21002,2.2704 9.4592,2.8115 17.08532,4.4357 26.55064,6.3572 9.87672,1.9215 19.98079,3.4576 30.26921,4.6106 10.69975,1.5372 20.76664,2.3053 30.23203,2.3053 25.51491,0 47.52274,-2.6883 66.04191,-8.0686 18.51879,-5.7647 33.76662,-13.655 45.70131,-23.6472 11.93422,-10.3765 20.78892,-22.4909 26.55064,-36.3265 5.76122,-13.83514 8.62682,-28.98708 8.62711,-45.51267 -2.9e-4,-20.75291 -5.54811,-38.62798 -16.65924,-53.6165 -10.70011,-14.98807 -25.94792,-26.33456 -45.7013,-34.02113 14.40344,-6.91745 25.9403,-16.9023 34.58275,-29.96932 8.64195,-13.06645 12.97758,-26.71715 12.97784,-40.93711 -2.6e-4,-14.21941 -2.499,-27.48605 -7.43714,-39.7844 -4.93867,-12.29779 -12.54396,-22.84129 -22.83206,-31.68091 -10.28855,-9.22324 -23.4417,-16.34534 -39.4913,-21.34174 -15.63843,-4.99572 -34.15594,-7.5094 -55.55552,-7.50985 z M 190.87337,773.34221 C 115.98914,807.59817 24.549174,849.64352 -38.711542,878.44436 l 0,0.0693 c -0.0618,19.7401 -0.01237,39.64904 0,59.4502 0,0 135.175947,52.86186 231.369832,90.22234 l 24.54259,-55.71217 c -79.1024,-30.55173 -175.219311,-68.2169 -175.219311,-68.2169 0,0 93.470471,-41.93 175.554001,-78.55601 z"
       style="fill:#ffcd57;fill-opacity:1;stroke:#48acc8;stroke-width:36.9048233;stroke-miterlimit:4;stroke-dasharray:none;stroke-opacity:1"
       inkscape:connector-curvature="0"
       sodipodi:nodetypes="ccccsccccccccscccsccccccsccccccscccccccccccccc" />
    <path
       style="fill:#ff4527;fill-rule:evenodd;stroke:#ffbf27;stroke-width:30;stroke-linecap:butt;stroke-linejoin:miter;stroke-miterlimit:4;stroke-dasharray:none;stroke-opacity:1;filter:url(#filter4290)"
       d="M 253.14453,210.94922 136.82422,269.10938 253.14453,210.94922 Z M 141.59766,426.61719 254.20508,472.75586 141.59766,426.61719 Z"
       transform="matrix(1.2058929,0,0,1.117737,7.0752643,514.30664)"
       id="path4151"
       inkscape:connector-curvature="0" />
    <path
       sodipodi:nodetypes="ccccsccccccccscccsccccccsccccccscccccccccccccc"
       inkscape:connector-curvature="0"
       style="fill:#02546c;fill-opacity:1;stroke:none;stroke-width:31.7876873;stroke-miterlimit:4;stroke-dasharray:none;stroke-opacity:0.50196078;filter:url(#filter4278)"
       d="m 309.62214,711.0809 c -19.11114,4e-4 -37.57888,4.3287 -51.71316,9.8125 -3.30983,1.2842 -16.13815,7.3939 -34.72213,16.4375 l 22.44913,47.5313 c 14.65346,-6.9754 26.2135,-12.4388 28.64729,-13.4375 13.10758,-5.3788 23.88774,-6.1873 35.83226,-6.1875 12.28552,2e-4 21.85263,3.4361 28.67813,10.3125 7.1665,6.5331 10.76186,15.6536 10.76201,27.3437 -1.5e-4,7.9084 -1.70637,14.4365 -5.11889,19.5938 -3.07158,5.1577 -7.18497,9.2807 -12.30385,12.375 -5.11917,3.0947 -10.90792,5.3436 -17.3919,6.7187 -12.75417,2.654 -28.83067,2.0816 -43.0172,2.0625 l 0,52.5938 19.45796,0 c 20.476,10e-5 37.38595,3.4359 50.69555,10.3125 13.30931,6.5329 19.95117,18.246 19.95134,35.0937 -1.7e-4,13.7535 -4.44864,25.2478 -13.32145,34.5313 -8.53188,9.2836 -23.55264,13.9375 -45.05244,13.9375 -17.40477,0 -33.38706,-2.7198 -45.02159,-5.6875 -1.29422,-0.3302 -5.47213,-1.8983 -11.28623,-4.1875 l -20.50641,50.125 c 2.71891,1.1 4.61655,1.8603 5.14973,2.0312 7.84415,2.5153 14.16819,3.9684 22.01741,5.6875 8.19038,1.7192 16.56929,3.0935 25.10108,4.125 8.87289,1.3753 17.22096,2.0625 25.07024,2.0625 21.15852,0 39.40876,-2.4051 54.76599,-7.2187 15.35691,-5.1575 28.00133,-12.2166 37.89831,-21.1563 9.89658,-9.2835 17.23944,-20.1219 22.01741,-32.5 4.77755,-12.3779 7.15388,-25.9338 7.15412,-40.7187 -2.4e-4,-18.5669 -4.60083,-34.5591 -13.81485,-47.9688 -8.87319,-13.4093 -21.5176,-23.5606 -37.89831,-30.4375 11.94421,-6.1888 21.51128,-15.1219 28.67813,-26.8125 7.16643,-11.6901 10.7618,-23.9029 10.76202,-36.625 -2.2e-4,-12.7216 -2.07233,-24.5908 -6.16734,-35.5937 -4.09544,-11.0024 -10.40221,-20.4353 -18.93374,-28.3438 -8.53189,-8.2517 -19.43928,-14.6236 -32.74859,-19.0937 -12.96834,-4.4695 -28.32419,-6.7184 -46.07003,-6.7188 z M 152.41661,772.1122 C 90.31803,802.7598 14.490433,840.3763 -37.969212,866.1434 l 0,0.062 c -0.05125,17.66077 -0.01027,35.4726 0,53.188 0,0 112.096142,47.2937 191.865982,80.7188 l 20.35222,-49.8438 C 108.65244,922.9349 28.946439,889.2372 28.946439,889.2372 c 0,0 77.511421,-37.5133 145.580091,-70.2813 z"
       id="path4156"
       transform="matrix(1.2058929,0,0,1.117737,7.0752643,-89.676153)" />
    <text
       xml:space="preserve"
       style="font-style:normal;font-weight:normal;font-size:402.57302856px;line-height:125%;font-family:Sans;-inkscape-font-specification:'Ubuntu Bold';letter-spacing:0px;word-spacing:0px;fill:#239dc0;fill-opacity:1;stroke:none;filter:url(#filter4266)"
       x="1307.8091"
       y="1217.0425"
       id="text4314"
       sodipodi:linespacing="125%"><tspan
         sodipodi:role="line"
         id="tspan4316"
         x="1307.8091"
         y="1217.0425"
         style="font-style:normal;font-variant:normal;font-weight:bold;font-stretch:normal;font-family:Ubuntu;-inkscape-font-specification:'Ubuntu Bold';fill:#239dc0;fill-opacity:1"
         dx="0 -22.927301 0 -7.6424336 -11.463651">Luvit</tspan></text>
    <rect
       y="1457.614"
       x="-1463.062"
       height="1028.4324"
       width="2465.2661"
       id="rect4391"
       style="fill:#3f3f3f;fill-opacity:1;stroke:#000000;stroke-width:22.70049667;stroke-miterlimit:4;stroke-dasharray:none" />
    <g
       id="g4514"
       style="font-style:normal;font-weight:normal;font-size:402.57302856px;line-height:125%;font-family:Sans;-inkscape-font-specification:'Ubuntu Bold';letter-spacing:0px;word-spacing:0px;fill:#239dc0;fill-opacity:1;stroke:none;filter:url(#filter4266)"
       transform="translate(0,1037)">
      <path
         id="path4516"
         style="font-style:normal;font-variant:normal;font-weight:bold;font-stretch:normal;font-family:Ubuntu;-inkscape-font-specification:'Ubuntu Bold';fill:#239dc0;fill-opacity:1"
         d="m -872.09999,979.95707 0,53.94483 -186.39131,0 0,-278.98315 62.80139,0 0,225.03832 123.58992,0 z"
         inkscape:connector-curvature="0" />
      <path
         id="path4518"
         style="font-style:normal;font-variant:normal;font-weight:bold;font-stretch:normal;font-family:Ubuntu;-inkscape-font-specification:'Ubuntu Bold';fill:#239dc0;fill-opacity:1"
         d="m -678.24172,1026.6555 q -15.29778,4.4283 -39.45216,8.0515 -24.15438,4.0257 -50.7242,4.0257 -26.97239,0 -45.08818,-7.2463 -17.71321,-7.2463 -28.18011,-20.1286 -10.4669,-13.28494 -14.8952,-31.40073 -4.42831,-18.11579 -4.42831,-39.85473 l 0,-117.9539 59.98338,0 0,110.70759 q 0,28.98525 7.64889,41.86759 7.64889,12.88234 28.58269,12.88234 6.44117,0 13.68748,-0.40258 7.24631,-0.80514 12.88234,-1.61029 l 0,-163.44465 59.98338,0 0,204.50706 z"
         inkscape:connector-curvature="0" />
      <path
         id="path4520"
         style="font-style:normal;font-variant:normal;font-weight:bold;font-stretch:normal;font-family:Ubuntu;-inkscape-font-specification:'Ubuntu Bold';fill:#239dc0;fill-opacity:1"
         d="m -570.26409,1033.9019 q -20.53123,-40.25735 -41.8676,-94.20213 -20.93379,-53.94479 -39.85473,-117.55133 l 63.60654,0 q 4.02573,15.70035 9.25918,34.21871 5.63602,18.11579 11.27205,37.03672 6.03859,18.51836 11.67462,36.23157 6.03859,17.71321 11.67461,32.20584 5.23345,-14.49263 11.27205,-32.20584 6.03859,-17.71321 11.67462,-36.23157 6.03859,-18.92093 11.27204,-37.03672 5.63602,-18.51836 9.66175,-34.21871 l 61.99625,0 q -18.92093,63.60654 -40.2573,117.55133 -20.9338,53.94478 -41.46503,94.20213 l -49.91905,0 z"
         inkscape:connector-curvature="0" />
      <path
         id="path4522"
         d="m -354.54769,1033.9019 -59.98338,0 0,-211.75346 59.98338,0 0,211.75346 z"
         style="font-style:normal;font-variant:normal;font-weight:bold;font-stretch:normal;font-family:Ubuntu;-inkscape-font-specification:'Ubuntu Bold';fill:#239dc0;fill-opacity:1"
         inkscape:connector-curvature="0" />
      <path
         id="path4524"
         d="m -348.91167,760.95734 q 0,16.5055 -10.86947,26.16725 -10.4669,9.25918 -24.95953,9.25918 -14.49262,0 -25.3621,-9.25918 -10.4669,-9.66175 -10.4669,-26.16725 0,-16.50549 10.4669,-25.76467 10.86948,-9.66175 25.3621,-9.66175 14.49263,0 24.95953,9.66175 10.86947,9.25918 10.86947,25.76467 z"
         style="font-style:normal;font-variant:normal;font-weight:bold;font-stretch:normal;font-family:Ubuntu;-inkscape-font-specification:'Ubuntu Bold';fill:#ff4527;fill-opacity:1"
         inkscape:connector-curvature="0" />
      <path
         id="path4526"
         style="font-style:normal;font-variant:normal;font-weight:bold;font-stretch:normal;font-family:Ubuntu;-inkscape-font-specification:'Ubuntu Bold';fill:#239dc0;fill-opacity:1"
         d="m -311.63878,769.41138 59.98338,-9.66176 0,62.39882 72.06057,0 0,49.91906 -72.06057,0 0,74.47601 q 0,18.92093 6.44117,30.19298 6.84374,11.27204 26.97239,11.27204 9.66175,0 19.72608,-1.61029 10.4669,-2.01287 18.92093,-5.23345 l 8.45403,46.69851 q -10.86947,4.4283 -24.15438,7.6488 -13.28491,3.2206 -32.60841,3.2206 -24.55696,0 -40.65988,-6.4411 -16.10292,-6.8438 -25.76467,-18.5184 -9.66176,-12.0772 -13.68749,-28.98525 -3.62315,-16.90807 -3.62315,-37.4393 l 0,-177.93727 z"
         inkscape:connector-curvature="0" />
    </g>
    <path
       sodipodi:nodetypes="ccccsccccccccscccsccccccsccccccscccccccccccccc"
       inkscape:connector-curvature="0"
       style="fill:#ffcd57;fill-opacity:1;stroke:#48acc8;stroke-width:36.9048233;stroke-miterlimit:4;stroke-dasharray:none;stroke-opacity:1"
       d="m 380.44641,1742.1253 c -23.04599,4e-4 -45.31611,4.8383 -62.36053,10.9678 -3.99131,1.4354 -19.46089,8.2644 -41.87117,18.3728 l 27.07124,53.1275 c 17.6705,-7.7967 31.61067,-13.9033 34.54557,-15.0196 15.80633,-6.0121 28.80606,-6.9158 43.20986,-6.916 14.81503,2e-4 26.35194,3.8406 34.58276,11.5266 8.64203,7.3023 12.97765,17.4967 12.97783,30.5631 -1.8e-4,8.8395 -2.0577,16.1362 -6.17283,21.9007 -3.704,5.765 -8.66431,10.3734 -14.83712,13.832 -6.17318,3.4591 -13.15379,5.9728 -20.97278,7.5098 -15.38017,2.9664 -34.7667,2.3266 -51.87414,2.3053 l 0,58.786 23.46422,0 c 24.69186,10e-5 45.08345,3.8405 61.1334,11.5267 16.0496,7.302 24.05898,20.3942 24.05918,39.2255 -2e-4,15.3728 -5.36458,28.2204 -16.06424,38.5969 -10.28853,10.3766 -28.40196,15.5785 -54.32842,15.5785 -20.98829,0 -40.26122,-3.04 -54.29121,-6.3572 -1.56069,-0.3691 -6.5988,-2.1218 -13.60998,-4.6805 l -24.72854,56.0265 c 3.27872,1.2296 5.56706,2.0794 6.21002,2.2704 9.4592,2.8115 17.08532,4.4357 26.55064,6.3572 9.87672,1.9215 19.98079,3.4576 30.26921,4.6106 10.69975,1.5372 20.76664,2.3053 30.23203,2.3053 25.51491,0 47.52274,-2.6883 66.04191,-8.0686 18.51879,-5.7647 33.76662,-13.655 45.70131,-23.6472 11.93422,-10.3765 20.78892,-22.4909 26.55064,-36.3265 5.76122,-13.8351 8.62682,-28.9871 8.62711,-45.5127 -2.9e-4,-20.7529 -5.54811,-38.6279 -16.65924,-53.6165 -10.70011,-14.988 -25.94792,-26.3345 -45.7013,-34.0211 14.40344,-6.9174 25.9403,-16.9023 34.58275,-29.9693 8.64195,-13.0665 12.97758,-26.7172 12.97784,-40.9371 -2.6e-4,-14.2194 -2.499,-27.4861 -7.43714,-39.7844 -4.93867,-12.2978 -12.54396,-22.8413 -22.83206,-31.6809 -10.28855,-9.2233 -23.4417,-16.3454 -39.4913,-21.3418 -15.63843,-4.9957 -34.15594,-7.5094 -55.55552,-7.5098 z m -189.57304,68.2169 c -74.88423,34.256 -166.324196,76.3013 -229.584912,105.1022 l 0,0.069 c -0.0618,19.7401 -0.01237,39.649 0,59.4502 0,0 135.175947,52.8618 231.369832,90.2223 l 24.54259,-55.7122 c -79.1024,-30.5517 -175.219311,-68.2169 -175.219311,-68.2169 0,0 93.470471,-41.93 175.554001,-78.556 z"
       id="path4528" />
    <path
       inkscape:connector-curvature="0"
       id="path4530"
       transform="matrix(1.2058929,0,0,1.117737,7.0752643,1551.3066)"
       d="M 253.14453,210.94922 136.82422,269.10938 253.14453,210.94922 Z M 141.59766,426.61719 254.20508,472.75586 141.59766,426.61719 Z"
       style="fill:#ff4527;fill-rule:evenodd;stroke:#ffbf27;stroke-width:30;stroke-linecap:butt;stroke-linejoin:miter;stroke-miterlimit:4;stroke-dasharray:none;stroke-opacity:1;filter:url(#filter4290)" />
    <path
       transform="matrix(1.2058929,0,0,1.117737,7.0752643,947.32385)"
       id="path4532"
       d="m 309.62214,711.0809 c -19.11114,4e-4 -37.57888,4.3287 -51.71316,9.8125 -3.30983,1.2842 -16.13815,7.3939 -34.72213,16.4375 l 22.44913,47.5313 c 14.65346,-6.9754 26.2135,-12.4388 28.64729,-13.4375 13.10758,-5.3788 23.88774,-6.1873 35.83226,-6.1875 12.28552,2e-4 21.85263,3.4361 28.67813,10.3125 7.1665,6.5331 10.76186,15.6536 10.76201,27.3437 -1.5e-4,7.9084 -1.70637,14.4365 -5.11889,19.5938 -3.07158,5.1577 -7.18497,9.2807 -12.30385,12.375 -5.11917,3.0947 -10.90792,5.3436 -17.3919,6.7187 -12.75417,2.654 -28.83067,2.0816 -43.0172,2.0625 l 0,52.5938 19.45796,0 c 20.476,10e-5 37.38595,3.4359 50.69555,10.3125 13.30931,6.5329 19.95117,18.246 19.95134,35.0937 -1.7e-4,13.7535 -4.44864,25.2478 -13.32145,34.5313 -8.53188,9.2836 -23.55264,13.9375 -45.05244,13.9375 -17.40477,0 -33.38706,-2.7198 -45.02159,-5.6875 -1.29422,-0.3302 -5.47213,-1.8983 -11.28623,-4.1875 l -20.50641,50.125 c 2.71891,1.1 4.61655,1.8603 5.14973,2.0312 7.84415,2.5153 14.16819,3.9684 22.01741,5.6875 8.19038,1.7192 16.56929,3.0935 25.10108,4.125 8.87289,1.3753 17.22096,2.0625 25.07024,2.0625 21.15852,0 39.40876,-2.4051 54.76599,-7.2187 15.35691,-5.1575 28.00133,-12.2166 37.89831,-21.1563 9.89658,-9.2835 17.23944,-20.1219 22.01741,-32.5 4.77755,-12.3779 7.15388,-25.9338 7.15412,-40.7187 -2.4e-4,-18.5669 -4.60083,-34.5591 -13.81485,-47.9688 -8.87319,-13.4093 -21.5176,-23.5606 -37.89831,-30.4375 11.94421,-6.1888 21.51128,-15.1219 28.67813,-26.8125 7.16643,-11.6901 10.7618,-23.9029 10.76202,-36.625 -2.2e-4,-12.7216 -2.07233,-24.5908 -6.16734,-35.5937 -4.09544,-11.0024 -10.40221,-20.4353 -18.93374,-28.3438 -8.53189,-8.2517 -19.43928,-14.6236 -32.74859,-19.0937 -12.96834,-4.4695 -28.32419,-6.7184 -46.07003,-6.7188 z M 152.41661,772.1122 C 90.31803,802.7598 14.490433,840.3763 -37.969212,866.1434 l 0,0.062 c -0.05125,17.66077 -0.01027,35.4726 0,53.188 0,0 112.096142,47.2937 191.865982,80.7188 l 20.35222,-49.8438 C 108.65244,922.9349 28.946439,889.2372 28.946439,889.2372 c 0,0 77.511421,-37.5133 145.580091,-70.2813 z"
       style="fill:#02546c;fill-opacity:1;stroke:none;stroke-width:31.7876873;stroke-miterlimit:4;stroke-dasharray:none;stroke-opacity:0.50196078;filter:url(#filter4278)"
       inkscape:connector-curvature="0"
       sodipodi:nodetypes="ccccsccccccccscccsccccccsccccccscccccccccccccc" />
    <rect
       y="-700.38593"
       x="-1463.062"
       height="1028.4324"
       width="2465.2661"
       id="rect4867"
       style="fill:#0097ba;fill-opacity:1;stroke:#bfbfbf;stroke-width:22.70049667;stroke-miterlimit:4;stroke-dasharray:none" />
    <path
       style="font-style:normal;font-variant:normal;font-weight:bold;font-stretch:normal;font-size:medium;line-height:125%;font-family:Ubuntu;-inkscape-font-specification:'Ubuntu Bold';letter-spacing:0px;word-spacing:0px;fill:#ffffff;fill-opacity:1;stroke:none;filter:url(#filter4266)"
       d="M 188.73438 -893.86328 L 188.73438 -614.88086 L 375.12695 -614.88086 L 375.12695 -668.82617 L 251.53711 -668.82617 L 251.53711 -893.86328 L 188.73438 -893.86328 z M 995.57031 -889.0332 L 935.58789 -879.37109 L 935.58789 -701.43359 C 935.58789 -687.74611 936.7955 -675.26619 939.21094 -663.99414 C 941.89476 -652.72211 946.45726 -643.06123 952.89844 -635.00977 C 959.3396 -627.2267 967.92683 -621.05472 978.66211 -616.49219 C 989.39739 -612.19812 1002.951 -610.05078 1019.3223 -610.05078 C 1032.2046 -610.05078 1043.075 -611.12442 1051.9316 -613.27148 C 1060.7882 -615.41848 1068.8396 -617.96772 1076.0859 -620.91992 L 1067.6309 -667.61719 C 1061.9948 -665.47013 1055.6889 -663.72668 1048.7109 -662.38477 C 1042.0014 -661.31124 1035.4255 -660.77344 1028.9844 -660.77344 C 1015.5653 -660.77344 1006.5742 -664.53218 1002.0117 -672.04688 C 997.71761 -679.56158 995.57031 -689.62628 995.57031 -702.24023 L 995.57031 -776.71484 L 1067.6309 -776.71484 L 1067.6309 -826.63477 L 995.57031 -826.63477 L 995.57031 -889.0332 z M 386.2168 -826.63477 L 386.2168 -708.67969 C 386.2168 -694.18706 387.69232 -680.90337 390.64453 -668.82617 C 393.59673 -656.74898 398.56113 -646.28241 405.53906 -637.42578 C 412.517 -628.83758 421.9119 -622.12774 433.7207 -617.29688 C 445.7979 -612.46601 460.827 -610.05078 478.80859 -610.05078 C 496.52181 -610.05078 513.43028 -611.39237 529.5332 -614.07617 C 545.63612 -616.49164 558.78585 -619.17475 568.98438 -622.12695 L 568.98438 -826.63477 L 509.00195 -826.63477 L 509.00195 -663.18945 C 505.2446 -662.65269 500.95001 -662.11684 496.11914 -661.58008 C 491.28827 -661.31169 486.72575 -661.17773 482.43164 -661.17773 C 468.47577 -661.17773 458.94887 -665.47037 453.84961 -674.05859 C 448.75035 -682.64682 446.19922 -696.60423 446.19922 -715.92773 L 446.19922 -826.63477 L 386.2168 -826.63477 z M 595.24023 -826.63477 C 607.85419 -784.23041 621.13789 -745.04718 635.09375 -709.08398 C 649.318 -673.1208 663.2754 -641.71909 676.96289 -614.88086 L 726.88086 -614.88086 C 740.56835 -641.71909 754.38984 -673.1208 768.3457 -709.08398 C 782.56995 -745.04718 795.98956 -784.23041 808.60352 -826.63477 L 746.60742 -826.63477 C 743.9236 -816.16787 740.70266 -804.76159 736.94531 -792.41602 C 733.45635 -780.33882 729.69955 -767.99286 725.67383 -755.37891 C 721.91647 -743.03333 718.02573 -730.95724 714 -719.14844 C 709.97427 -707.33963 706.21553 -696.60316 702.72656 -686.94141 C 698.96922 -696.60316 695.07846 -707.33963 691.05273 -719.14844 C 687.29538 -730.95724 683.40268 -743.03333 679.37695 -755.37891 C 675.6196 -767.99286 671.86282 -780.33882 668.10547 -792.41602 C 664.6165 -804.76159 661.52952 -816.16787 658.8457 -826.63477 L 595.24023 -826.63477 z M 832.69531 -826.63477 L 832.69531 -614.88086 L 892.67773 -614.88086 L 892.67773 -826.63477 L 832.69531 -826.63477 z "
       transform="translate(-1247.2264,568.78291)"
       id="path4871" />
    <path
       style="font-style:normal;font-variant:normal;font-weight:bold;font-stretch:normal;font-size:medium;line-height:125%;font-family:Ubuntu;-inkscape-font-specification:'Ubuntu Bold';letter-spacing:0px;word-spacing:0px;fill:#ff4527;fill-opacity:1;stroke:none;filter:url(#filter4266)"
       d="m -348.91167,-319.04266 q 0,16.5055 -10.86947,26.16725 -10.4669,9.25918 -24.95953,9.25918 -14.49262,0 -25.3621,-9.25918 -10.4669,-9.66175 -10.4669,-26.16725 0,-16.50549 10.4669,-25.76467 10.86948,-9.66175 25.3621,-9.66175 14.49263,0 24.95953,9.66175 10.86947,9.25918 10.86947,25.76467 z"
       id="path4879"
       inkscape:connector-curvature="0" />
    <path
       sodipodi:nodetypes="ccccsccccccccscccsccccccsccccccscccccccccccccc"
       inkscape:connector-curvature="0"
       style="fill:#ffffff;fill-opacity:1;stroke:#ffffff;stroke-width:36.9048233;stroke-miterlimit:4;stroke-dasharray:none;stroke-opacity:1"
       d="m 380.44641,-374.87473 c -23.04599,4.5e-4 -45.31611,4.83835 -62.36053,10.9678 -3.99131,1.43539 -19.46089,8.26443 -41.87117,18.3728 l 27.07124,53.12749 c 17.6705,-7.79667 31.61067,-13.90331 34.54557,-15.01959 15.80633,-6.01209 28.80606,-6.91577 43.20986,-6.916 14.81503,2.3e-4 26.35194,3.84065 34.58276,11.52666 8.64203,7.30229 12.97765,17.49662 12.97783,30.56306 -1.8e-4,8.83952 -2.0577,16.13622 -6.17283,21.90073 -3.704,5.76494 -8.66431,10.37338 -14.83712,13.83199 -6.17318,3.45906 -13.15379,5.97274 -20.97278,7.50974 -15.38017,2.96647 -34.7667,2.32668 -51.87414,2.30533 l 0,58.78604 23.46422,0 c 24.69186,1.1e-4 45.08345,3.84043 61.1334,11.52666 16.0496,7.30206 24.05898,20.39423 24.05918,39.22552 -2e-4,15.37281 -5.36458,28.22039 -16.06424,38.5969 -10.28853,10.3766 -28.40196,15.5785 -54.32842,15.5785 -20.98829,0 -40.26122,-3.04 -54.29121,-6.3572 -1.56069,-0.3691 -6.5988,-2.1218 -13.60998,-4.6805 l -24.72854,56.0265 c 3.27872,1.2296 5.56706,2.0794 6.21002,2.2704 9.4592,2.8115 17.08532,4.4357 26.55064,6.3572 9.87672,1.9215 19.98079,3.4576 30.26921,4.6106 10.69975,1.5372 20.76664,2.3053 30.23203,2.3053 25.51491,0 47.52274,-2.6883 66.04191,-8.0686 18.51879,-5.7647 33.76662,-13.655 45.70131,-23.6472 11.93422,-10.3765 20.78892,-22.4909 26.55064,-36.3265 5.76122,-13.83514 8.62682,-28.98708 8.62711,-45.51267 -2.9e-4,-20.75291 -5.54811,-38.62798 -16.65924,-53.6165 -10.70011,-14.98807 -25.94792,-26.33456 -45.7013,-34.02113 14.40344,-6.91745 25.9403,-16.9023 34.58275,-29.96932 8.64195,-13.06645 12.97758,-26.71715 12.97784,-40.93711 -2.6e-4,-14.21941 -2.499,-27.48605 -7.43714,-39.7844 -4.93867,-12.29779 -12.54396,-22.84129 -22.83206,-31.68091 -10.28855,-9.22324 -23.4417,-16.34534 -39.4913,-21.34174 -15.63843,-4.99572 -34.15594,-7.5094 -55.55552,-7.50985 z m -189.57304,68.21694 c -74.88423,34.25596 -166.324196,76.30131 -229.584912,105.10215 l 0,0.0693 c -0.0618,19.7401 -0.01237,39.64904 0,59.4502 0,0 135.175947,52.86186 231.369832,90.22234 l 24.54259,-55.71217 c -79.1024,-30.55173 -175.219311,-68.2169 -175.219311,-68.2169 0,0 93.470471,-41.93 175.554001,-78.55601 z"
       id="path4883" />
    <path
       inkscape:connector-curvature="0"
       id="path4885"
       transform="matrix(1.2058929,0,0,1.117737,7.0752643,-565.69336)"
       d="M 253.14453,210.94922 136.82422,269.10938 253.14453,210.94922 Z M 141.59766,426.61719 254.20508,472.75586 141.59766,426.61719 Z"
       style="fill:#ff4527;fill-rule:evenodd;stroke:#ffbf27;stroke-width:30;stroke-linecap:butt;stroke-linejoin:miter;stroke-miterlimit:4;stroke-dasharray:none;stroke-opacity:1;filter:url(#filter4290)" />
    <path
       transform="matrix(1.2058929,0,0,1.117737,7.0752643,-1169.6762)"
       id="path4887"
       d="m 309.62214,711.0809 c -19.11114,4e-4 -37.57888,4.3287 -51.71316,9.8125 -3.30983,1.2842 -16.13815,7.3939 -34.72213,16.4375 l 22.44913,47.5313 c 14.65346,-6.9754 26.2135,-12.4388 28.64729,-13.4375 13.10758,-5.3788 23.88774,-6.1873 35.83226,-6.1875 12.28552,2e-4 21.85263,3.4361 28.67813,10.3125 7.1665,6.5331 10.76186,15.6536 10.76201,27.3437 -1.5e-4,7.9084 -1.70637,14.4365 -5.11889,19.5938 -3.07158,5.1577 -7.18497,9.2807 -12.30385,12.375 -5.11917,3.0947 -10.90792,5.3436 -17.3919,6.7187 -12.75417,2.654 -28.83067,2.0816 -43.0172,2.0625 l 0,52.5938 19.45796,0 c 20.476,10e-5 37.38595,3.4359 50.69555,10.3125 13.30931,6.5329 19.95117,18.246 19.95134,35.0937 -1.7e-4,13.7535 -4.44864,25.2478 -13.32145,34.5313 -8.53188,9.2836 -23.55264,13.9375 -45.05244,13.9375 -17.40477,0 -33.38706,-2.7198 -45.02159,-5.6875 -1.29422,-0.3302 -5.47213,-1.8983 -11.28623,-4.1875 l -20.50641,50.125 c 2.71891,1.1 4.61655,1.8603 5.14973,2.0312 7.84415,2.5153 14.16819,3.9684 22.01741,5.6875 8.19038,1.7192 16.56929,3.0935 25.10108,4.125 8.87289,1.3753 17.22096,2.0625 25.07024,2.0625 21.15852,0 39.40876,-2.4051 54.76599,-7.2187 15.35691,-5.1575 28.00133,-12.2166 37.89831,-21.1563 9.89658,-9.2835 17.23944,-20.1219 22.01741,-32.5 4.77755,-12.3779 7.15388,-25.9338 7.15412,-40.7187 -2.4e-4,-18.5669 -4.60083,-34.5591 -13.81485,-47.9688 -8.87319,-13.4093 -21.5176,-23.5606 -37.89831,-30.4375 11.94421,-6.1888 21.51128,-15.1219 28.67813,-26.8125 7.16643,-11.6901 10.7618,-23.9029 10.76202,-36.625 -2.2e-4,-12.7216 -2.07233,-24.5908 -6.16734,-35.5937 -4.09544,-11.0024 -10.40221,-20.4353 -18.93374,-28.3438 -8.53189,-8.2517 -19.43928,-14.6236 -32.74859,-19.0937 -12.96834,-4.4695 -28.32419,-6.7184 -46.07003,-6.7188 z M 152.41661,772.1122 C 90.31803,802.7598 14.490433,840.3763 -37.969212,866.1434 l 0,0.062 c -0.05125,17.66077 -0.01027,35.4726 0,53.188 0,0 112.096142,47.2937 191.865982,80.7188 l 20.35222,-49.8438 C 108.65244,922.9349 28.946439,889.2372 28.946439,889.2372 c 0,0 77.511421,-37.5133 145.580091,-70.2813 z"
       style="fill:#fc4a39;fill-opacity:1;stroke:none;stroke-width:31.7876873;stroke-miterlimit:4;stroke-dasharray:none;stroke-opacity:0.50196078;filter:url(#filter4278)"
       inkscape:connector-curvature="0"
       sodipodi:nodetypes="ccccsccccccccscccsccccccsccccccscccccccccccccc" />
  </g>
</svg>
